<svg xmlns="http://www.w3.org/2000/svg" width="200" height="200" viewBox="0 0 200 200">
  <!-- Background Circle -->
  <circle cx="100" cy="100" r="90" fill="#f0f0f0" stroke="#7ac142" stroke-width="4"/>
  
  <!-- Lifecycle Circle Segments -->
  <path d="M100,100 L100,30 A70,70 0 0,1 160,100 Z" fill="#7ac142" fill-opacity="0.8"/>
  <path d="M100,100 L160,100 A70,70 0 0,1 100,170 Z" fill="#7ac142" fill-opacity="0.6"/>
  <path d="M100,100 L100,170 A70,70 0 0,1 40,100 Z" fill="#7ac142" fill-opacity="0.4"/>
  <path d="M100,100 L40,100 A70,70 0 0,1 100,30 Z" fill="#7ac142" fill-opacity="0.2"/>
  
  <!-- Center Circle -->
  <circle cx="100" cy="100" r="25" fill="white" stroke="#7ac142" stroke-width="3"/>
  
  <!-- Text "MaLDReTH" -->
  <text x="100" y="105" font-family="Arial" font-size="16" font-weight="bold" text-anchor="middle" fill="#333">MaLDReTH</text>
  
  <!-- Decorative Elements -->
  <circle cx="100" cy="30" r="6" fill="#5a9f17"/>
  <circle cx="160" cy="100" r="6" fill="#5a9f17"/>
  <circle cx="100" cy="170" r="6" fill="#5a9f17"/>
  <circle cx="40" cy="100" r="6" fill="#5a9f17"/>
  
  <!-- Connecting Lines -->
  <path d="M100,30 A70,70 0 0,1 160,100" fill="none" stroke="#5a9f17" stroke-width="2" stroke-dasharray="5,5"/>
  <path d="M160,100 A70,70 0 0,1 100,170" fill="none" stroke="#5a9f17" stroke-width="2" stroke-dasharray="5,5"/>
  <path d="M100,170 A70,70 0 0,1 40,100" fill="none" stroke="#5a9f17" stroke-width="2" stroke-dasharray="5,5"/>
  <path d="M40,100 A70,70 0 0,1 100,30" fill="none" stroke="#5a9f17" stroke-width="2" stroke-dasharray="5,5"/>
</svg>
